# xmcd
#
# Track frame offsets: 
#        150
#        36030
#        67100
#        137120
#        159528
#        175935
#        205952
#
# Disc length: 3271 seconds
#
# Revision: 1
# Processed by: cddbd v1.5.2PL0 Copyright (c) Steve Scherf et al.
# Submitted via: ExactAudioCopy v0.99pb4
#
DISCID=630cc507
DTITLE=Johnny Winter - Live Bootleg Series Vol 3
DYEAR=2008
DGENRE=Blues
TTITLE0=Mojo Boogie
TTITLE1=Stranger Blues
TTITLE2=I Smell Trouble
TTITLE3=Boot Hill
TTITLE4=Stones In My Pass Way
TTITLE5=I`M Gonna Murder My Baby
TTITLE6=Highway 61 Revisited
EXTD=YEAR: 2008
EXTT0=
EXTT1=
EXTT2=
EXTT3=
EXTT4=
EXTT5=
EXTT6=
PLAYORDER=
